<svg width="18" height="16" viewBox="0 0 18 16" fill="none" xmlns="http://www.w3.org/2000/svg">
<path d="M16.0948 0.629395H1.90518C1.40035 0.630872 0.916623 0.83207 0.559652 1.18904C0.202681 1.54601 0.0014807 2.02974 0 2.53457L0 13.4656C0.0014807 13.9704 0.202681 14.4541 0.559652 14.8111C0.916623 15.1681 1.40035 15.3693 1.90518 15.3708H16.0948C16.5996 15.3693 17.0834 15.1681 17.4403 14.8111C17.7973 14.4541 17.9985 13.9704 18 13.4656V2.53457C17.9985 2.02974 17.7973 1.54601 17.4403 1.18904C17.0834 0.83207 16.5996 0.630872 16.0948 0.629395ZM7.6059 11.349L4.14296 13.3615C4.03776 13.4226 3.92153 13.4624 3.80094 13.4787C3.68034 13.4949 3.55773 13.4872 3.4401 13.456C3.20255 13.3931 2.99972 13.2384 2.87625 13.0259C2.75277 12.8134 2.71876 12.5606 2.78169 12.323C2.84462 12.0855 2.99935 11.8827 3.21183 11.7592L6.67476 9.74675C6.77998 9.68549 6.89623 9.64556 7.01688 9.62926C7.13753 9.61295 7.26021 9.62058 7.37791 9.65171C7.49562 9.68284 7.60603 9.73686 7.70284 9.81068C7.79965 9.8845 7.88097 9.97668 7.94214 10.0819C8.00331 10.1872 8.04314 10.3035 8.05935 10.4242C8.07556 10.5448 8.06783 10.6675 8.0366 10.7852C8.00537 10.9028 7.95126 11.0132 7.87736 11.11C7.80346 11.2067 7.71121 11.288 7.6059 11.349ZM8.96822 8.28299H8.96405C8.84237 8.28246 8.72198 8.25797 8.60977 8.21092C8.49755 8.16386 8.3957 8.09516 8.31003 8.00874C8.22437 7.92233 8.15656 7.81988 8.11049 7.70725C8.06442 7.59463 8.04098 7.47403 8.04152 7.35235L8.05889 3.363C8.05997 3.11796 8.15806 2.88333 8.3317 2.71044C8.50533 2.53754 8.74037 2.44045 8.98541 2.44041H8.98957C9.23532 2.44149 9.47057 2.54014 9.64358 2.71467C9.81659 2.88919 9.91318 3.1253 9.91211 3.37105L9.89474 7.3604C9.89365 7.60544 9.79556 7.84007 9.62193 8.01296C9.4483 8.18586 9.21325 8.28295 8.96822 8.28299ZM15.0954 13.0233C15.0346 13.1287 14.9536 13.2211 14.8571 13.2952C14.7606 13.3693 14.6504 13.4237 14.5328 13.4552C14.4153 13.4867 14.2927 13.4947 14.172 13.4788C14.0514 13.4629 13.935 13.4233 13.8297 13.3624L10.3617 11.3602C10.2562 11.2994 10.1637 11.2184 10.0895 11.1219C10.0153 11.0253 9.96086 10.9151 9.9293 10.7975C9.89773 10.6799 9.88965 10.5573 9.90551 10.4365C9.92138 10.3158 9.96088 10.1994 10.0218 10.094C10.0826 9.98853 10.1637 9.89612 10.2603 9.82202C10.3569 9.74792 10.4672 9.69359 10.5848 9.66214C10.7024 9.63068 10.8251 9.62271 10.9458 9.63869C11.0665 9.65467 11.1829 9.69428 11.2883 9.75525L14.7563 11.7575C14.8617 11.8183 14.954 11.8993 15.0281 11.9959C15.1022 12.0924 15.1565 12.2026 15.188 12.3201C15.2195 12.4377 15.2275 12.5603 15.2117 12.6809C15.1958 12.8016 15.1563 12.9179 15.0954 13.0233Z" fill="#FFC61C"/>
</svg>
