<svg width="163" height="30" viewBox="0 0 163 30" fill="none" xmlns="http://www.w3.org/2000/svg">
<g clip-path="url(#clip0_1123_2006)">
<path d="M25.5722 9.66211L19.1511 16.0832V22.5485L25.528 28.9254H32.0375L38.4144 22.5485V16.0832L31.9933 9.66211H25.5722ZM28.7828 26.5711L21.518 19.3064L28.7828 12.0416L36.0475 19.3064L28.7828 26.5711Z" fill="#FA9247"/>
<path d="M162.7 13.2256V9.64473H157.556V3.50977L152.793 4.73003V9.64473H149.096V13.2256H152.793V22.104C152.793 24.4919 153.378 26.2823 154.545 27.4774C155.713 28.6703 157.44 29.2678 159.727 29.2678C160.209 29.2678 160.705 29.2173 161.213 29.1163C161.745 29.0405 162.229 28.9122 162.66 28.7355V24.9632C162.33 25.0894 161.987 25.1925 161.631 25.2683C161.301 25.344 160.895 25.3819 160.411 25.3819C159.521 25.3819 158.822 25.1147 158.315 24.5824C157.808 24.048 157.554 23.1223 157.554 21.801V13.2277H162.698L162.7 13.2256Z" fill="#263237"/>
<path d="M141.316 12.9584C142.128 12.9584 142.955 13.1225 143.792 13.4528C144.655 13.7579 145.431 14.2271 146.117 14.8624L147.564 11.5467C146.803 10.8103 145.812 10.2507 144.592 9.8699C143.399 9.46384 142.166 9.25977 140.895 9.25977C138.913 9.25977 137.186 9.65319 135.713 10.4401C134.241 11.2269 133.083 12.3588 132.246 13.8315C131.434 15.3043 131.026 17.0821 131.026 19.1649C131.026 21.2478 131.432 23.0508 132.246 24.5761C133.058 26.0741 134.203 27.2312 135.675 28.0434C137.173 28.8555 138.913 29.2615 140.895 29.2615C142.141 29.2615 143.359 29.0574 144.554 28.6514C145.772 28.2453 146.778 27.6731 147.564 26.9367L146.117 23.6609C145.406 24.2963 144.619 24.7655 143.754 25.0705C142.915 25.3756 142.103 25.5271 141.316 25.5271C139.614 25.5271 138.28 24.9801 137.314 23.8882C136.374 22.7962 135.905 21.233 135.905 19.2007C135.905 17.1683 136.374 15.6198 137.314 14.5511C138.28 13.4844 139.614 12.95 141.316 12.95V12.9584Z" fill="#263237"/>
<path d="M123.58 20.5048C123.58 22.0028 123.149 23.2105 122.284 24.1256C121.447 25.0408 120.353 25.4974 119.006 25.4974C117.813 25.4974 116.923 25.1671 116.339 24.5065C115.754 23.8206 115.461 22.7665 115.461 21.3443V9.64663H110.698V21.3822C110.698 24.0499 111.283 26.0318 112.451 27.3257C113.618 28.6217 115.383 29.2697 117.746 29.2697C119.244 29.2697 120.553 28.9015 121.67 28.1651C122.497 27.6139 123.168 26.9007 123.69 26.0318V28.8889H128.339V9.64453H123.576V20.5048H123.58Z" fill="#263237"/>
<path d="M106.522 9.26397C105.506 9.26397 104.565 9.46805 103.703 9.8741C102.84 10.2802 102.101 10.9029 101.493 11.7403C101.23 12.119 101.001 12.5418 100.805 13.0068L100.465 9.64267H95.855C95.956 10.4295 96.0191 11.2437 96.0464 12.0811C96.0969 12.9184 96.1222 13.7453 96.1222 14.5574V28.8849H100.923V18.6347C100.923 17.5933 101.102 16.6655 101.458 15.8534C101.838 15.0413 102.398 14.4059 103.134 13.9472C103.896 13.4907 104.824 13.2614 105.916 13.2614C106.423 13.2614 106.844 13.2866 107.174 13.3371C107.529 13.3876 107.948 13.5159 108.432 13.7179L108.47 9.52696C108.19 9.42597 107.91 9.36286 107.633 9.33551C107.353 9.28501 106.985 9.25977 106.528 9.25977L106.522 9.26397Z" fill="#263237"/>
<path d="M87.8433 3.50977L83.0801 4.73003V9.64473H79.3835V13.2256H83.0801V22.104C83.0801 24.4919 83.665 26.2823 84.8326 27.4774C86.0003 28.6703 87.7276 29.2678 90.0145 29.2678C90.4963 29.2678 90.9928 29.2173 91.4999 29.1163C92.0322 29.0405 92.5161 28.9122 92.9474 28.7355V24.9632C92.6171 25.0894 92.2741 25.1925 91.9186 25.2683C91.5883 25.344 91.1822 25.3819 90.7004 25.3819C89.8105 25.3819 89.112 25.1147 88.6049 24.5824C88.0958 24.048 87.8433 23.1223 87.8433 21.801V13.2277H92.9873V9.64683H87.8433V3.50977Z" fill="#263237"/>
<path d="M73.4758 18.0643L69.6657 17.3405C68.8788 17.1617 68.2939 16.8966 67.9131 16.541C67.5576 16.1602 67.3808 15.6911 67.3808 15.1314C67.3808 14.3951 67.6859 13.7976 68.296 13.341C68.9062 12.8592 69.8718 12.6173 71.191 12.6173C72.1567 12.6173 73.1476 12.7961 74.1638 13.1517C75.18 13.5072 76.0804 14.0016 76.8694 14.637L78.2411 11.5506C77.3785 10.789 76.3098 10.2167 75.0411 9.83593C73.7956 9.45513 72.4617 9.26367 71.0395 9.26367C69.4132 9.26367 67.991 9.53087 66.7728 10.0632C65.5799 10.5702 64.6521 11.2834 63.9914 12.1965C63.3561 13.1117 63.0384 14.1657 63.0384 15.3587C63.0384 16.7556 63.4571 17.8854 64.2965 18.7501C65.1591 19.6148 66.4046 20.2229 68.0309 20.5784L71.8411 21.3022C72.7037 21.481 73.3264 21.7461 73.7093 22.1016C74.1154 22.432 74.3195 22.8885 74.3195 23.4734C74.3195 24.2097 74.0018 24.7946 73.3664 25.2259C72.7563 25.6572 71.8158 25.8739 70.5472 25.8739C69.3543 25.8739 68.1719 25.6972 67.0042 25.3395C65.8366 24.984 64.7699 24.4769 63.8042 23.8163L62.4703 27.0163C63.4108 27.7275 64.5658 28.2871 65.9376 28.6932C67.3345 29.074 68.8599 29.2654 70.5093 29.2654C72.1588 29.2654 73.5579 29.0235 74.776 28.5417C75.9963 28.0599 76.9472 27.3614 77.6331 26.4462C78.319 25.531 78.6619 24.4391 78.6619 23.1683C78.6619 21.7461 78.218 20.6289 77.3281 19.8147C76.4655 18.9774 75.1821 18.3925 73.48 18.0622L73.4758 18.0643Z" fill="#263237"/>
<path d="M52.7693 9.26367C51.1935 9.26367 49.8091 9.63185 48.6162 10.3682C47.6505 10.9447 46.8784 11.7315 46.2956 12.7225L45.9884 9.64448H41.3788C41.4798 10.4313 41.5555 11.2329 41.6081 12.045C41.6586 12.8571 41.6838 13.6587 41.6838 14.4456V28.8867H46.4471V18.0264C46.4471 16.5032 46.8784 15.2829 47.7431 14.3677C48.6057 13.4525 49.7754 12.996 51.2482 12.996C52.4411 12.996 53.331 13.3389 53.9159 14.0248C54.526 14.6854 54.8311 15.79 54.8311 17.3405V28.8867H59.5943V17.1133C59.5943 14.4203 59.0221 12.4385 57.8796 11.1698C56.7372 9.89905 55.0352 9.26367 52.7735 9.26367H52.7693Z" fill="#263237"/>
<path d="M19.1048 9.6445H13.3507L5.53891 17.8371H5.46317V0.841797H0.699951V28.8867H5.46317V20.2755H5.53891L13.883 28.8867H19.7907L10.3105 18.8511L19.1048 9.6445Z" fill="#263237"/>
</g>
<defs>
<clipPath id="clip0_1123_2006">
<rect width="162" height="28.613" fill="white" transform="translate(0.699951 0.699219)"/>
</clipPath>
</defs>
</svg>
