<svg width="160" height="160" viewBox="0 0 160 160" fill="none" xmlns="http://www.w3.org/2000/svg">
<mask id="mask0_1123_956" style="mask-type:alpha" maskUnits="userSpaceOnUse" x="0" y="0" width="160" height="160">
<circle cx="80" cy="80" r="80" fill="url(#paint0_linear_1123_956)"/>
</mask>
<g mask="url(#mask0_1123_956)">
<path d="M85.1676 83.8812L85.2032 83.9538L85.2381 84.027L85.2722 84.101L85.3056 84.1756L85.3382 84.2509L85.37 84.327L85.401 84.4037L85.4313 84.481L85.4608 84.5591L85.4894 84.6377L85.5172 84.7171L85.5442 84.797L85.5703 84.8776L85.5956 84.9588L85.6201 85.0406L85.6436 85.123L85.6663 85.206L85.6881 85.2895L85.709 85.3737L85.7289 85.4584L85.748 85.5436L85.7661 85.6294L85.7833 85.7157L85.7996 85.8025L85.8149 85.8899L85.8292 85.9777L85.8426 86.0661L85.855 86.1549L85.8664 86.2441L85.8768 86.3339L85.8862 86.424L85.8946 86.5146L85.902 86.6057L85.9083 86.6971L85.9136 86.7889L85.9179 86.8812L85.9212 86.9737L85.9233 87.0667L85.9244 87.16L85.9245 87.2537L85.9235 87.3476L85.9214 87.4419L85.9182 87.5365L85.9139 87.6314L85.9085 87.7266L85.902 87.822L85.8944 87.9177L85.8857 88.0136L85.8758 88.1098L85.8649 88.2061L85.8528 88.3027L85.8395 88.3995L85.8251 88.4964L85.8096 88.5935L85.7929 88.6907L85.7751 88.7881L85.756 88.8856L85.7359 88.9832L85.7145 89.0809L85.692 89.1786L85.6683 89.2765L85.6434 89.3744L85.6174 89.4723L85.5901 89.5702L85.5617 89.6682L85.5321 89.7662L85.5012 89.8641L85.4692 89.962L85.436 90.0599L85.4016 90.1577L85.3659 90.2554L85.3291 90.353L85.291 90.4505L85.2518 90.548L85.2113 90.6452L85.1696 90.7424L85.1267 90.8393L85.0826 90.9361L85.0373 91.0327L84.9907 91.1291L84.9429 91.2252L84.8939 91.3212L84.8437 91.4168L84.7923 91.5123L84.7397 91.6074L84.6858 91.7022L84.6308 91.7967L84.5745 91.8909L84.517 91.9848L84.4583 92.0783L84.3984 92.1714L84.3372 92.2641L84.2749 92.3565L84.2114 92.4484L84.1466 92.5399L84.0807 92.6309L84.0135 92.7215L83.9452 92.8116L83.8756 92.9012L83.8049 92.9904L83.733 93.0789L83.6599 93.167L83.5856 93.2545L83.5101 93.3414L83.4335 93.4278L83.3557 93.5136L83.2767 93.5987L83.1966 93.6832L83.1153 93.7671L83.0329 93.8503L82.9493 93.9329L82.8646 94.0148L82.7787 94.096L82.6918 94.1764L82.6036 94.2562L82.5144 94.3352L82.4241 94.4134L82.3326 94.4909L82.2401 94.5675L82.1464 94.6434L82.0517 94.7185L81.9559 94.7927L81.859 94.8661L81.7611 94.9386L81.6621 95.0103L81.562 95.0811L81.4609 95.151L81.3588 95.2199L81.2556 95.288L81.1514 95.3551L81.0462 95.4212L80.94 95.4864L80.8328 95.5506L80.7247 95.6138L80.6155 95.676L80.5054 95.7371L80.3944 95.7973L80.2824 95.8563L80.1694 95.9144L80.0555 95.9713L79.9407 96.0272L79.8251 96.082L79.7085 96.1356L79.591 96.1881L79.4726 96.2395L79.3534 96.2898L79.2334 96.3389L79.1125 96.3868L78.9907 96.4335L78.8682 96.479L78.7448 96.5234L78.6207 96.5665L78.4957 96.6083L78.37 96.649L78.2435 96.6883L78.1163 96.7264L77.9884 96.7633L77.8597 96.7988L77.7304 96.833L77.6003 96.866L77.4696 96.8976L77.3382 96.9279L77.2061 96.9568L77.0734 96.9844L76.9401 97.0106L76.8061 97.0355L76.6716 97.059L76.5364 97.0811L76.4007 97.1018L76.2645 97.1211L76.1277 97.1389L75.9904 97.1554L75.8525 97.1704L75.7142 97.184L75.5754 97.1961L75.4361 97.2067L75.2964 97.2159L75.1562 97.2236L75.0156 97.2299L74.8746 97.2346L74.7332 97.2378L74.5915 97.2396L74.4493 97.2398L74.3069 97.2385L74.1641 97.2356L74.021 97.2313L73.8776 97.2254L73.7339 97.2179L73.59 97.2089L73.4458 97.1983L73.3014 97.1862L73.1568 97.1725L73.012 97.1572L72.8671 97.1404L72.7219 97.1219L72.5766 97.1019L72.4312 97.0802L72.2857 97.057L72.1401 97.0322L71.9944 97.0057L71.8487 96.9777L71.7029 96.948L71.5572 96.9167L71.4114 96.8838L71.2656 96.8492L71.1198 96.813L70.9742 96.7752L70.8285 96.7358L70.683 96.6947L70.5376 96.652L70.3923 96.6076L70.2471 96.5616L70.1021 96.514L69.9573 96.4647L69.8126 96.4137L69.6682 96.3611L69.524 96.3069L69.3801 96.251L69.2365 96.1935L69.0931 96.1343L68.95 96.0734L68.8073 96.0109L68.6649 95.9468L68.5229 95.881L68.3812 95.8136L68.24 95.7445L68.0991 95.6738L67.9587 95.6014L67.8188 95.5274L67.6793 95.4517L67.5404 95.3744L67.4019 95.2955L67.264 95.2149L67.1266 95.1328L66.9898 95.0489L66.8536 94.9635L66.718 94.8764L66.583 94.7878L66.4487 94.6975L66.315 94.6056L66.182 94.5121L66.0497 94.417L65.9181 94.3203L65.7872 94.222L65.6571 94.1221L65.5278 94.0206L65.3993 93.9176L65.2716 93.813L65.1447 93.7069L65.0187 93.5991L64.8935 93.4899L64.7692 93.3791L64.6458 93.2667L64.5233 93.1528L64.4018 93.0374L64.2812 92.9205L64.1617 92.8021L64.043 92.6822L63.9255 92.5608L63.8089 92.4379L63.6934 92.3135L63.5789 92.1877L63.4655 92.0604L63.3533 91.9317L63.2421 91.8015L63.1321 91.6699L63.0232 91.5369L62.9155 91.4024L62.809 91.2666L62.7037 91.1294L62.5996 90.9908L62.4967 90.8508L62.3951 90.7095L62.2948 90.5669L62.1958 90.4229L62.098 90.2776L62.0016 90.131L61.9065 89.983L61.8128 89.8338L61.7204 89.6834L61.6294 89.5316L61.5399 89.3786L61.4517 89.2244L61.365 89.069L61.2797 88.9123L61.1959 88.7545L61.1136 88.5955L61.0327 88.4353L60.9534 88.2739L60.8756 88.1115L60.7993 87.9478L60.7246 87.7831L60.6514 87.6173L60.5798 87.4504L60.5099 87.2825L60.4415 87.1135L60.3748 86.9435L60.3097 86.7724L60.2462 86.6004L60.1844 86.4273L60.1243 86.2533L60.0659 86.0784L60.0092 85.9025L59.9542 85.7257L59.9009 85.5479L59.8494 85.3693L59.7996 85.1899L59.7516 85.0096L59.7054 84.8284L59.6609 84.6464L59.6183 84.4637L59.5775 84.2801L59.5385 84.0958L59.5013 83.9108L59.466 83.725L59.4325 83.5385L59.4009 83.3514L59.3712 83.1635L59.3434 82.975L59.3175 82.7859L59.2935 82.5962L59.2714 82.4059L59.2512 82.215L59.2329 82.0235L59.2166 81.8316L59.2023 81.6391L59.1899 81.4461L59.1795 81.2526L59.1711 81.0587L59.1647 80.8644L59.1602 80.6697L59.1578 80.4745L59.1573 80.279L59.1589 80.0832L59.1625 79.887L59.1682 79.6905L59.1758 79.4937L59.1856 79.2967L59.1973 79.0994L59.2111 78.9019L59.227 78.7042L59.245 78.5063L59.265 78.3083L59.2871 78.1101L59.3113 77.9118L59.3375 77.7135L59.3659 77.515L59.3963 77.3165L59.4289 77.118L59.4635 76.9195L59.5002 76.721L59.5391 76.5225L59.58 76.3242L59.6231 76.1259L59.6683 75.9277L59.7156 75.7296L59.765 75.5317L59.8166 75.334L59.8702 75.1365L59.926 74.9392L59.9839 74.7421L60.0439 74.5453L60.1061 74.3489L60.1704 74.1527L60.2368 73.9569L60.3053 73.7614L60.376 73.5663L60.4487 73.3716L60.5236 73.1774L60.6007 72.9836L60.6798 72.7903L60.761 72.5975L60.8444 72.4052L60.9299 72.2134L61.0175 72.0223L61.1072 71.8317L61.199 71.6417L61.2929 71.4524L61.3889 71.2638L61.487 71.0758L61.5871 70.8885L61.6894 70.702L61.7938 70.5162L61.9002 70.3312L62.0087 70.147L62.1192 69.9637L62.2318 69.7812L62.3465 69.5995L62.4632 69.4188L62.582 69.2389L62.7028 69.06L62.8256 68.8821L62.9504 68.7052L63.0772 68.5292L63.2061 68.3543L63.337 68.1805L63.4698 68.0077L63.6046 67.8361L63.7414 67.6655L63.8802 67.4961L64.0209 67.3279L64.1635 67.1608L64.3081 66.995L64.4546 66.8304L64.603 66.667L64.7534 66.505L64.9056 66.3442L65.0597 66.1847L65.2157 66.0266L65.3735 65.8699L65.5332 65.7145L65.6948 65.5606L65.8581 65.4081L66.0233 65.257L66.1902 65.1074L66.359 64.9593L66.5295 64.8127L66.7018 64.6676L66.8758 64.5241L67.0516 64.3822L67.2291 64.2419L67.4083 64.1032L67.5891 63.9661L67.7717 63.8307L67.9559 63.6969L68.1418 63.5649L68.3293 63.4345L68.5184 63.3059L68.7091 63.1791L68.9014 63.054L69.0952 62.9308L69.2906 62.8093L69.4876 62.6897L69.686 62.5719L69.886 62.456L70.0874 62.342L70.2903 62.2298L70.4946 62.1196L70.7004 62.0114L70.9076 61.9051L71.1162 61.8008L71.3261 61.6984L71.5374 61.5981L71.7501 61.4998L71.964 61.4036L72.1792 61.3094L72.3958 61.2173L72.6135 61.1273L72.8326 61.0394L73.0528 60.9536L73.2742 60.8699L73.4968 60.7884L73.7206 60.7091L73.9454 60.632L74.1714 60.5571L74.3985 60.4844L74.6267 60.4139L74.8559 60.3456L75.0861 60.2797L75.3173 60.216L75.5495 60.1545L75.7827 60.0954L76.0168 60.0386L76.2518 59.9841L76.4877 59.932L76.7245 59.8822L76.9621 59.8347L77.2006 59.7897L77.4398 59.747L77.6798 59.7067L77.9206 59.6689L78.162 59.6334L78.4042 59.6004L78.6471 59.5698L78.8906 59.5417L79.1347 59.516L79.3794 59.4928L79.6248 59.4721L79.8706 59.4539L80.117 59.4381L80.3639 59.4249L80.6113 59.4142L80.8591 59.406L81.1074 59.4004L81.356 59.3973L81.605 59.3967L81.8544 59.3987L82.1041 59.4033L82.3541 59.4104L82.6044 59.4201L82.8549 59.4324L83.1056 59.4472L83.3565 59.4647L83.6076 59.4847L83.8588 59.5074L84.1101 59.5327L84.3615 59.5605L84.613 59.591L84.8645 59.6241L85.116 59.6599L85.3675 59.6982L85.6189 59.7392L85.8702 59.7829L86.1215 59.8291L86.3726 59.878L86.6235 59.9295L86.8743 59.9837L87.1248 60.0405L87.3751 60.1L87.6251 60.1621L87.8749 60.2269L88.1243 60.2943L88.3733 60.3643L88.622 60.437L88.8702 60.5123L89.118 60.5903L89.3654 60.6709L89.6122 60.7542L89.8586 60.84L90.1044 60.9286L90.3496 61.0197L90.5942 61.1135L90.8381 61.2099L91.0814 61.309L91.324 61.4107L91.5659 61.5149L91.8071 61.6218L92.0475 61.7313L92.2871 61.8434L92.5258 61.9581L92.7637 62.0754L93.0007 62.1953L93.2368 62.3178L93.472 62.4428L93.7062 62.5704L93.9394 62.7006L94.1715 62.8333L94.4027 62.9686L94.6327 63.1064L94.8616 63.2467L95.0894 63.3895L95.3161 63.5349L95.5416 63.6828L95.7658 63.8331L95.9888 63.986L96.2105 64.1413L96.431 64.2991L96.6501 64.4593L96.8679 64.622L97.0842 64.7871L97.2992 64.9547L97.5128 65.1246L97.7249 65.297L97.9355 65.4717L98.1446 65.6488L98.3522 65.8282L98.5582 66.0101L98.7626 66.1942L98.9654 66.3807L99.1666 66.5694L99.3661 66.7605L99.5639 66.9538L99.76 67.1494L99.9544 67.3472L100.147 67.5473L100.338 67.7496L100.527 67.9541L100.714 68.1607L100.899 68.3696L101.083 68.5806L101.264 68.7937L101.444 69.0089L101.621 69.2262L101.797 69.4456L101.97 69.6671L102.142 69.8906L102.311 70.1162L102.479 70.3437L102.644 70.5732L102.807 70.8047L102.968 71.0382L103.127 71.2735L103.284 71.5108L103.438 71.75L103.59 71.991L103.74 72.2339L103.888 72.4785L104.033 72.725L104.176 72.9733L104.317 73.2233L104.455 73.4751L104.591 73.7286L104.725 73.9837L104.856 74.2406L104.985 74.4991L105.111 74.7592L105.235 75.0208L105.356 75.2841L105.474 75.5489L105.591 75.8153L105.704 76.0831L105.815 76.3524L105.924 76.6232L106.029 76.8954L106.133 77.169L106.233 77.4439L106.331 77.7202L106.426 77.9978L106.519 78.2768L106.608 78.557L106.695 78.8384L106.78 79.121L106.861 79.4049L106.94 79.6899L107.016 79.976L107.089 80.2633L107.159 80.5516L107.227 80.8409L107.291 81.1313L107.353 81.4227L107.412 81.715L107.468 82.0083L107.521 82.3025L107.571 82.5976L107.618 82.8935L107.663 83.1902L107.704 83.4878L107.742 83.7861L107.778 84.0851L107.81 84.3848L107.84 84.6852L107.866 84.9862L107.889 85.2879L107.91 85.5901L107.927 85.8929L107.941 86.1962L107.953 86.5L107.961 86.8042L107.966 87.1089L107.968 87.4139L107.967 87.7193L107.963 88.0251L107.956 88.3311L107.945 88.6375L107.932 88.944L107.915 89.2508L107.896 89.5577L107.873 89.8648L107.847 90.172L107.818 90.4793L107.786 90.7866L107.75 91.0939L107.712 91.4012L107.67 91.7085L107.626 92.0157L107.578 92.3227L107.527 92.6296L107.472 92.9363L107.415 93.2428L107.354 93.5491L107.291 93.8551L107.224 94.1607L107.154 94.466L107.08 94.771L107.004 95.0755L106.924 95.3796L106.842 95.6832L106.756 95.9863L106.667 96.2888L106.575 96.5908L106.479 96.8921L106.381 97.1928L106.279 97.4929L106.175 97.7922L106.067 98.0908L105.956 98.3885L105.842 98.6855L105.724 98.9817L105.604 99.277L105.48 99.5713L105.354 99.8647L105.224 100.157L105.091 100.449L104.955 100.739L104.816 101.028L104.674 101.317L104.529 101.604L104.381 101.89L104.23 102.174L104.076 102.458L103.918 102.74L103.758 103.021L103.595 103.3L103.429 103.579L103.259 103.855L103.087 104.131L102.912 104.405L102.734 104.677L102.553 104.948L102.369 105.217L102.182 105.485L101.992 105.751L101.799 106.016L101.604 106.278L101.405 106.54L101.204 106.799L101 107.056L100.793 107.312L100.584 107.566L100.371 107.818L100.156 108.068L99.9379 108.316L99.7172 108.563L99.4938 108.807L99.2676 109.049L99.0388 109.289L98.8074 109.527L98.5733 109.763L98.3366 109.997L98.0973 110.229L97.8554 110.458L97.6109 110.686L97.3639 110.911L97.1144 111.133L96.8624 111.354L96.6079 111.572L96.3509 111.788L96.0915 112.001L95.8297 112.212L95.5655 112.42L95.2989 112.626L95.03 112.83L94.7587 113.031L94.4852 113.229L94.2093 113.425L93.9312 113.618L93.6509 113.809L93.3684 113.997L93.0837 114.182L92.7969 114.365L92.5079 114.544L92.2168 114.721L91.9237 114.896L91.6285 115.067L91.3313 115.236L91.0321 115.402L90.7309 115.565L90.4277 115.725L90.1227 115.882L89.8157 116.036L89.507 116.187L89.1963 116.335L88.8839 116.48L88.5697 116.623L88.2538 116.762L87.9361 116.898L87.6168 117.031L87.2958 117.16L86.9732 117.287L86.649 117.411L86.3232 117.531L85.9959 117.648L85.6671 117.762L85.3369 117.873L85.0052 117.98L84.672 118.085L84.3376 118.186L84.0017 118.283L83.6646 118.378L83.3262 118.469L82.9865 118.556L82.6456 118.641L82.3036 118.722L81.9603 118.799L81.616 118.873L81.2706 118.944L80.9242 119.011L80.5767 119.075L80.2283 119.135L79.8789 119.192L79.5287 119.246L79.1775 119.295L78.8255 119.342L78.4727 119.385L78.1192 119.424L77.7649 119.46L77.4099 119.492L77.0542 119.52L76.6979 119.545L76.3411 119.567L75.9836 119.585L75.6257 119.599L75.2673 119.609L74.9084 119.616L74.5491 119.62L74.1895 119.619L73.8295 119.615L73.4692 119.608L73.1086 119.596L72.7479 119.581L72.3869 119.563L72.0258 119.54L71.6645 119.514L71.3032 119.485L70.9419 119.451L70.5805 119.414L70.2192 119.373L69.858 119.329L69.4969 119.281L69.1359 119.229L68.7751 119.173L68.4145 119.114L68.0542 119.051L67.6942 118.984L67.3346 118.914L66.9753 118.839L66.6164 118.762L66.258 118.68L65.9001 118.595L65.5427 118.506L65.1858 118.413L64.8296 118.316L64.474 118.216L64.1191 118.112L63.7649 118.005L63.4115 117.894L63.0589 117.779L62.7071 117.66L62.3562 117.538L62.0062 117.412L61.6571 117.282L61.309 117.149L60.962 117.012L60.616 116.872L60.2711 116.727L59.9273 116.58L59.5848 116.428L59.2434 116.273L58.9033 116.114L58.5645 115.952L58.227 115.786L57.8909 115.617L57.5561 115.444L57.2229 115.267L56.8911 115.087L56.5608 114.904L56.232 114.717L55.9049 114.526L55.5793 114.332L55.2555 114.135L54.9333 113.934L54.6128 113.729L54.2942 113.521L53.9773 113.31L53.6623 113.095L53.3492 112.877L53.038 112.656L52.7287 112.431L52.4214 112.203L52.1162 111.971L51.813 111.737L51.5119 111.499L51.2129 111.257L50.9161 111.013L50.6214 110.765L50.3291 110.514L50.0389 110.26L49.7511 110.003L49.4657 109.742L49.1825 109.478L48.9018 109.212L48.6236 108.942L48.3478 108.669L48.0745 108.393L47.8037 108.115L47.5355 107.833L47.2699 107.548L47.007 107.26L46.7467 106.97L46.4891 106.676L46.2342 106.38L45.9821 106.08L45.7328 105.778L45.4863 105.473L45.2426 105.166L45.0019 104.855L44.764 104.542L44.5291 104.227L44.2972 103.908L44.0682 103.587L43.8423 103.264L43.6195 102.937L43.3997 102.609L43.1831 102.278L42.9696 101.944L42.7593 101.608L42.5522 101.269L42.3483 100.928L42.1476 100.585L41.9503 100.239L41.7562 99.8913L41.5655 99.5412L41.3781 99.1887L41.1941 98.8341L41.0136 98.4774L40.8364 98.1185L40.6627 97.7575L40.4925 97.3944L40.3259 97.0293L40.1627 96.6622L40.0031 96.2931L39.847 95.9222L39.6946 95.5493L39.5458 95.1746L39.4006 94.798L39.2591 94.4197L39.1212 94.0396L38.9871 93.6578L38.8567 93.2743L38.73 92.8892L38.6072 92.5024L38.488 92.1141L38.3727 91.7243L38.2612 91.333L38.1536 90.9402L38.0498 90.546L37.9499 90.1505L37.8539 89.7535L37.7618 89.3553L37.6736 88.9559L37.5893 88.5552L37.509 88.1533L37.4327 87.7503L37.3604 87.3461L37.292 86.9409L37.2277 86.5347L37.1674 86.1275L37.1112 85.7194L37.059 85.3103L37.0109 84.9004L36.9668 84.4896L36.9269 84.0781L36.891 83.6659L36.8593 83.2529L36.8316 82.8393L36.8081 82.425L36.7888 82.0102L36.7736 81.5948L36.7626 81.179L36.7557 80.7627L36.753 80.346L36.7545 79.9289L36.7602 79.5115L36.7701 79.0939L36.7842 78.676L36.8025 78.2579L36.825 77.8396L36.8517 77.4212L36.8827 77.0028L36.9178 76.5843L36.9572 76.1659L37.0009 75.7475L37.0488 75.3292L37.1009 74.9111L37.1573 74.4932L37.2179 74.0755L37.2827 73.6581L37.3518 73.241L37.4252 72.8242L37.5027 72.4079L37.5846 71.9921L37.6706 71.5767L37.7609 71.1619L37.8555 70.7476L37.9543 70.334L38.0573 69.921L38.1645 69.5088L38.276 69.0973L38.3917 68.6866L38.5116 68.2768L38.6357 67.8679L38.764 67.4599L38.8965 67.0528L39.0332 66.6468L39.1741 66.2419L39.3192 65.838L39.4684 65.4353L39.6218 65.0338L39.7793 64.6336L39.941 64.2346L40.1068 63.8369L40.2768 63.4406L40.4508 63.0458L40.629 62.6523L40.8112 62.2604L40.9976 61.87L41.188 61.4812L41.3824 61.094L41.5809 60.7084L41.7834 60.3246L41.9899 59.9425L42.2004 59.5622L42.4149 59.1838L42.6333 58.8072L42.8557 58.4326L43.0821 58.0599L43.3123 57.6892L43.5465 57.3205L43.7845 56.954L44.0264 56.5895L44.2722 56.2273L44.5217 55.8672L44.7751 55.5094L45.0323 55.1538L45.2932 54.8006L45.5579 54.4498L45.8263 54.1014L46.0984 53.7554L46.3741 53.4119L46.6536 53.0709L46.9366 52.7325L47.2233 52.3967L47.5136 52.0635L47.8074 51.7331L48.1048 51.4053L48.4057 51.0803L48.7101 50.7581L49.018 50.4388L49.3292 50.1223L49.6439 49.8087L49.962 49.498L50.2835 49.1904L50.6082 48.8857L50.9363 48.5841L51.2677 48.2856L51.6023 47.9903L51.9401 47.698L52.2811 47.409L52.6252 47.1232L52.9725 46.8407L53.3229 46.5615L53.6763 46.2856L54.0328 46.0131L54.3923 45.7439L54.7547 45.4782L55.1201 45.216L55.4884 44.9573L55.8596 44.7021L56.2336 44.4505L56.6104 44.2024L56.9899 43.958L57.3722 43.7172L57.7572 43.4802L58.1449 43.2468L58.5352 43.0172L58.9281 42.7914L59.3235 42.5693L59.7215 42.3511L60.1219 42.1368L60.5248 41.9263L60.9301 41.7198L61.3378 41.5172L61.7478 41.3186L62.1601 41.124L62.5747 40.9334L62.9915 40.7468L63.4104 40.5644L63.8315 40.386L64.2547 40.2118L64.6799 40.0417L65.1072 39.8758L65.5364 39.714L65.9676 39.5565L66.4007 39.4033L66.8356 39.2543L67.2724 39.1096L67.7109 38.9692L68.1511 38.8331L68.593 38.7014L69.0366 38.5741L69.4817 38.4511L69.9285 38.3326L70.3767 38.2184L70.8264 38.1088L71.2775 38.0036L71.73 37.9029L72.1839 37.8066L72.639 37.7149L73.0954 37.6278L73.553 37.5451L74.0117 37.4671L74.4716 37.3936L74.9325 37.3247L75.3944 37.2605L75.8574 37.2008L76.3212 37.1458L76.7859 37.0954L77.2515 37.0497L77.7179 37.0087L78.185 36.9723L78.6528 36.9407L79.1213 36.9137L79.5903 36.8915L80.06 36.874L80.5301 36.8612L81.0007 36.8531L81.4717 36.8498L81.9431 36.8513L82.4148 36.8575L82.8868 36.8685L83.3589 36.8843L83.8313 36.9049L84.3038 36.9302L84.7764 36.9603L85.249 36.9953L85.7216 37.035L86.1941 37.0795L86.6665 37.1289L87.1388 37.183L87.6108 37.242L88.0826 37.3057L88.5541 37.3743L89.0252 37.4477L89.4959 37.5259L89.9662 37.6089L90.436 37.6967L90.9052 37.7894L91.3738 37.8868L91.8417 37.989L92.309 38.0961L92.7755 38.2079L93.2412 38.3245L93.7061 38.4459L94.17 38.5721L94.6331 38.703L95.0951 38.8388L95.5561 38.9792L96.016 39.1245L96.4748 39.2745L96.9324 39.4292L97.3887 39.5886L97.8438 39.7528L98.2976 39.9217L98.7499 40.0953L99.2008 40.2736L99.6503 40.4565L100.098 40.6441L100.545 40.8364L100.989 41.0333L101.432 41.2348L101.874 41.441L102.313 41.6517L102.751 41.8671L103.187 42.087L103.621 42.3114L104.053 42.5404L104.483 42.7739L104.911 43.0119L105.337 43.2544L105.761 43.5014L106.182 43.7528L106.602 44.0087L107.019 44.2689L107.434 44.5336L107.846 44.8026L108.256 45.0759L108.664 45.3536L109.069 45.6356L109.471 45.9219L109.871 46.2124L110.268 46.5071L110.663 46.8061L111.054 47.1093L111.443 47.4166L111.83 47.728L112.213 48.0436L112.593 48.3632L112.971 48.6869L113.345 49.0147L113.717 49.3464L114.085 49.6821L114.451 50.0217L114.813 50.3653L115.172 50.7128L115.527 51.0641L115.88 51.4192L116.229 51.7781L116.574 52.1408L116.917 52.5072L117.256 52.8774L117.591 53.2512L117.923 53.6286L118.251 54.0096L118.576 54.3942L118.897 54.7823L119.214 55.174L119.528 55.5691L119.838 55.9676L120.144 56.3695L120.446 56.7748L120.745 57.1834L121.039 57.5952L121.33 58.0103L121.616 58.4287L121.899 58.8502L122.178 59.2748L122.452 59.7025L122.723 60.1333L122.989 60.567L123.251 61.0038L123.509 61.4435L123.763 61.8861L124.012 62.3315L124.257 62.7797L124.498 63.2307L124.734 63.6844L124.966 64.1409L125.194 64.5999L125.417 65.0616L125.636 65.5258L125.85 65.9925L126.059 66.4616L126.264 66.9332L126.465 67.4072L126.661 67.8835L126.852 68.3621L127.039 68.8429L127.22 69.326L127.398 69.8111L127.57 70.2984L127.737 70.7877L127.9 71.2791L128.058 71.7723L128.211 72.2676L128.36 72.7646L128.503 73.2635L128.642 73.7642L128.775 74.2665L128.904 74.7706L129.028 75.2763L129.146 75.7835L129.26 76.2923L129.369 76.8025L129.472 77.3141L129.571 77.8272L129.664 78.3415L129.753 78.8572L129.836 79.374L129.914 79.892L129.987 80.4111L130.055 80.9313L130.118 81.4526L130.175 81.9747L130.227 82.4978L130.274 83.0218L130.316 83.5465L130.353 84.072L130.384 84.5983L130.411 85.1251L130.432 85.6526L130.447 86.1806L130.458 86.7091L130.463 87.238L130.462 87.7674L130.457 88.297L130.446 88.8269L130.43 89.3571L130.408 89.8874L130.382 90.4178L130.35 90.9484L130.312 91.4789L130.269 92.0093L130.221 92.5397L130.168 93.0699L130.109 93.5999L130.045 94.1296L129.975 94.6591L129.901 95.1881L129.82 95.7168L129.735 96.2449L129.644 96.7725L129.548 97.2995L129.446 97.8259L129.339 98.3516L129.227 98.8765L129.11 99.4007L128.987 99.9239L128.859 100.446L128.725 100.968L128.586 101.488L128.442 102.007L128.293 102.525L128.138 103.042L127.978 103.558L127.813 104.073L127.643 104.586L127.467 105.097L127.286 105.607L127.1 106.116L126.909 106.623L126.712 107.129L126.51 107.633L126.303 108.135L126.091 108.635L125.874 109.134L125.652 109.63L125.424 110.125L125.192 110.618L124.954 111.108L124.712 111.597L124.464 112.083L124.211 112.567L123.954 113.049L123.691 113.529L123.423 114.006L123.151 114.481L122.873 114.953L122.591 115.423L122.304 115.89L122.012 116.355L121.715 116.817L121.413 117.277L121.106 117.733L120.795 118.187L120.479 118.638L120.158 119.086L119.833 119.531L119.503 119.973L119.168 120.412L118.829 120.847L118.485 121.28L118.137 121.709L117.784 122.136L117.426 122.558L117.065 122.978L116.698 123.394L116.328 123.807L115.953 124.216L115.574 124.622L115.19 125.024L114.802 125.422L114.41 125.817L114.014 126.208L113.614 126.595L113.209 126.979L112.8 127.358L112.388 127.734L111.971 128.106L111.551 128.473L111.126 128.837L110.698 129.197L110.265 129.553L109.829 129.904L109.39 130.251L108.946 130.594L108.499 130.933L108.048 131.267L107.593 131.598L107.135 131.923L106.673 132.245L106.208 132.561L105.74 132.874L105.268 133.181L104.792 133.485L104.314 133.783L103.832 134.077L103.347 134.366L102.858 134.651L102.367 134.931L101.872 135.205L101.375 135.476L100.874 135.741L100.371 136.001L99.8641 136.257L99.3549 136.507L98.8428 136.753L98.3279 136.993L97.8104 137.229L97.2902 137.459L96.7674 137.684L96.242 137.904L95.7141 138.119L95.1838 138.329L94.6511 138.533L94.116 138.733L93.5786 138.926L93.0389 139.115L92.4971 139.298L91.9531 139.476L91.407 139.649L90.8589 139.816L90.3088 139.978L89.7567 140.134L89.2028 140.285L88.647 140.43L88.0895 140.57L87.5302 140.704L86.9693 140.833L86.4068 140.956L85.8427 141.074L85.2771 141.185L84.7101 141.292L84.1417 141.392L83.572 141.487L83.0009 141.576L82.4287 141.66L81.8553 141.738L81.2808 141.81L80.7053 141.876L80.1287 141.937L79.5513 141.991L78.9729 142.04L78.3937 142.083L77.8138 142.121L77.2332 142.152L76.6519 142.178L76.07 142.198L75.4877 142.212L74.9048 142.22L74.3215 142.222L73.7379 142.219L73.154 142.209L72.5699 142.194L71.9855 142.172L71.4011 142.145L70.8166 142.112L70.2321 142.073L69.6477 142.028L69.0634 141.977L68.4792 141.92L67.8953 141.858L67.3118 141.789L66.7285 141.714L66.1457 141.634L65.5634 141.548L64.9816 141.455L64.4004 141.357L63.8199 141.253L63.2401 141.143L62.661 141.027L62.0828 140.905L61.5055 140.777L60.9292 140.644L60.3538 140.504L59.7796 140.359L59.2065 140.207L58.6346 140.05L58.0639 139.887L57.4945 139.718L56.9266 139.544L56.36 139.363L55.795 139.177L55.2315 138.985L54.6696 138.787L54.1093 138.583L53.5508 138.374L52.9941 138.159L52.4393 137.938L51.8863 137.711L51.3353 137.479L50.7863 137.241L50.2395 136.997L49.6947 136.748L49.1521 136.493L48.6118 136.232L48.0738 135.966L47.5382 135.695L47.005 135.417L46.4743 135.135L45.9461 134.846L45.4205 134.553L44.8975 134.253L44.3773 133.949L43.8598 133.639L43.3452 133.323L42.8334 133.002L42.3246 132.676L41.8187 132.345L41.3159 132.008L40.8162 131.666L40.3196 131.319L39.8262 130.967L39.3361 130.609L38.8493 130.246L38.3659 129.878L37.8859 129.506L37.4093 129.128L36.9363 128.745L36.4668 128.357L36.001 127.964L35.5388 127.566L35.0804 127.164L34.6258 126.756L34.175 126.344L33.7281 125.927L33.2851 125.505L32.846 125.079L32.4111 124.648L31.9801 124.212L31.5534 123.772L31.1308 123.327L30.7124 122.878L30.2983 122.424L29.8885 121.966L29.483 121.503L29.082 121.036L28.6854 120.565L28.2934 120.09L27.9059 119.61L27.5229 119.126L27.1446 118.638L26.771 118.146L26.4021 117.65L26.038 117.15L25.6787 116.646L25.3242 116.139L24.9746 115.627L24.63 115.112L24.2903 114.592L23.9556 114.069L23.626 113.543L23.3015 113.013L22.9821 112.479L22.6679 111.942L22.3589 111.401L22.0551 110.857L21.7566 110.31L21.4634 109.759L21.1756 109.205L20.8932 108.648L20.6162 108.088L20.3446 107.524L20.0786 106.958L19.818 106.389L19.563 105.816L19.3137 105.241L19.0699 104.663L18.8318 104.082L18.5993 103.499L18.3726 102.913L18.1517 102.324L17.9364 101.733L17.727 101.139L17.5235 100.543L17.3257 99.9448L17.1339 99.344L16.948 98.741L16.768 98.1358L16.5939 97.5285L16.4259 96.9191L16.2638 96.3077L16.1078 95.6943L15.9578 95.0791L15.814 94.462L15.6762 93.8431L15.5445 93.2226L15.4189 92.6004L15.2996 91.9766L15.1863 91.3512L15.0793 90.7245L14.9785 90.0963L14.884 89.4667L14.7956 88.8359L14.7136 88.2039L14.6378 87.5708L14.5683 86.9365L14.5051 86.3012L14.4482 85.665L14.3977 85.0278L14.3535 84.3898L14.3157 83.7511L14.2842 83.1116L14.2591 82.4715L14.2404 81.8308L14.2281 81.1896L14.2222 80.5479L14.2227 79.9059L14.2297 79.2635L14.243 78.6209L14.2628 77.9781L14.2891 77.3351L14.3217 76.6921L14.3609 76.0491L14.4064 75.4062L14.4585 74.7634L14.5169 74.1207L14.5819 73.4784L14.6532 72.8364L14.7311 72.1947L14.8154 71.5536L14.9061 70.9129L15.0033 70.2729L15.107 69.6335L15.2171 68.9948L15.3336 68.3569L15.4566 67.7198L15.586 67.0837L15.7218 66.4486L15.8641 65.8145L16.0127 65.1815L16.1678 64.5497L16.3292 63.9191L16.4971 63.2899L16.6713 62.662L16.8519 62.0356L17.0388 61.4107L17.2321 60.7873L17.4317 60.1656L17.6376 59.5455L17.8499 58.9273L18.0684 58.3108L18.2932 57.6963L18.5242 57.0837L18.7615 56.4732L19.005 55.8647L19.2547 55.2584L19.5106 54.6542L19.7727 54.0524L20.0409 53.4529L20.3152 52.8558L20.5957 52.2612L20.8822 51.6691L21.1748 51.0796L21.4734 50.4927L21.7781 49.9086L22.0887 49.3272L22.4053 48.7487L22.7278 48.1731L23.0563 47.6005L23.3906 47.0308L23.7308 46.4643L24.0769 45.9009L24.4287 45.3407L24.7863 44.7838L25.1497 44.2302L25.5187 43.68L25.8935 43.1333L26.2739 42.59L26.6599 42.0503L27.0515 41.5143L27.4487 40.9819L27.8513 40.4533L28.2595 39.9284L28.6731 39.4074L29.0921 38.8903L29.5165 38.3772L29.9462 37.8681L30.3813 37.3631L30.8215 36.8622L31.267 36.3656L31.7177 35.8731L32.1736 35.385L32.6345 34.9012L33.1005 34.4218L33.5715 33.9469L34.0475 33.4765L34.5284 33.0106L35.0143 32.5494L35.5049 32.0928L36.0004 31.641L36.5006 31.1939L37.0055 30.7517L37.5151 30.3143L38.0294 29.8818L38.5482 29.4544L39.0715 29.0319L39.5993 28.6145L40.1315 28.2022L40.6681 27.7951L41.209 27.3932L41.7542 26.9965L42.3037 26.6051L42.8573 26.2191L43.415 25.8385L43.9768 25.4633L44.5426 25.0936L45.1124 24.7294L45.6862 24.3707L46.2637 24.0177L46.8451 23.6703L47.4302 23.3286L48.0191 22.9927L48.6115 22.6625L49.2076 22.3381L49.8072 22.0196L50.4102 21.7069L51.0167 21.4002L51.6265 21.0994L52.2396 20.8046L52.856 20.5159L53.4755 20.2332L54.0982 19.9567L54.7239 19.6863L55.3526 19.422L55.9843 19.164L56.6188 18.9122L57.2562 18.6666L57.8963 18.4274L58.5391 18.1945L59.1846 17.968L59.8326 17.7478L60.4831 17.5341L61.1361 17.3268L61.7914 17.1261L62.4491 16.9318L63.109 16.744L63.7711 16.5628L64.4354 16.3882L65.1017 16.2202L65.7699 16.0588L66.4401 15.9041L67.1122 15.756L67.7861 15.6147L68.4617 15.48L69.139 15.3522L69.8178 15.231L70.4982 15.1167L71.1801 15.0091L71.8633 14.9084L72.5479 14.8145L73.2337 14.7274L73.9208 14.6472L74.6089 14.5739L75.2981 14.5075L75.9883 14.448L76.6795 14.3954L77.3714 14.3498L78.0642 14.3111L78.7576 14.2794L79.4517 14.2546L80.1464 14.2368L80.8415 14.226L81.5371 14.2222L82.2331 14.2254L82.9293 14.2356L83.6258 14.2528L84.3224 14.277L85.0191 14.3083L85.7159 14.3466L86.4125 14.3919L87.109 14.4443L87.8054 14.5037L88.5014 14.5701L89.1971 14.6436L89.8925 14.7241L90.5873 14.8117L91.2815 14.9063L91.9752 15.0079L92.6681 15.1166L93.3603 15.2322L94.0517 15.355L94.7421 15.4847L95.4316 15.6214L96.12 15.7652L96.8073 15.9159L97.4934 16.0737L98.1782 16.2384L98.8617 16.4101L99.5438 16.5887L100.224 16.7743L100.904 16.9669L101.581 17.1663L102.257 17.3727L102.931 17.586L103.603 17.8061L104.273 18.0332L104.942 18.267L105.608 18.5078L106.272 18.7553L106.934 19.0096L107.594 19.2708L108.252 19.5387L108.907 19.8133L109.56 20.0946L110.21 20.3827L110.857 20.6774L111.502 20.9788L112.144 21.2868L112.784 21.6014L113.421 21.9226L114.054 22.2504L114.685 22.5847L115.312 22.9254L115.937 23.2727L116.558 23.6264L117.176 23.9865L117.791 24.353L118.402 24.7259L119.01 25.1051L119.615 25.4905L120.216 25.8823L120.813 26.2802L121.406 26.6844L121.996 27.0947L122.582 27.5111L123.164 27.9336L123.742 28.3622L124.316 28.7968L124.886 29.2373L125.451 29.6838L126.013 30.1362L126.57 30.5944L127.123 31.0585L127.672 31.5283L128.216 32.0039L128.755 32.4851L129.29 32.972L129.821 33.4645L130.347 33.9626L130.868 34.4662L131.384 34.9752L131.895 35.4897L132.401 36.0095L132.903 36.5347L133.399 37.0652L133.891 37.6009L134.377 38.1418L134.858 38.6878L135.334 39.2389L135.804 39.795L136.269 40.3561L136.729 40.9222L137.183 41.4931L137.632 42.0689L138.075 42.6494L138.513 43.2346L138.945 43.8246L139.371 44.4191L139.792 45.0182L140.206 45.6217L140.615 46.2297L141.018 46.8421L141.415 47.4589L141.806 48.0799L142.191 48.7051L142.57 49.3344L142.943 49.9679L143.31 50.6053L143.67 51.2468L144.024 51.8922L144.372 52.5414L144.714 53.1944L145.049 53.8511L145.378 54.5115L145.7 55.1754L146.016 55.843L146.325 56.514L146.628 57.1883L146.924 57.8661L147.214 58.5471L147.496 59.2313L147.772 59.9187L148.042 60.6091L148.304 61.3026L148.56 61.999L148.809 62.6983L149.051 63.4004L149.286 64.1052L149.514 64.8128L149.736 65.5229L149.95 66.2355L150.157 66.9506L150.357 67.6681L150.55 68.388L150.736 69.1101L150.915 69.8344L151.087 70.5607L151.251 71.2892L151.408 72.0196L151.558 72.7519L151.701 73.486L151.837 74.2219L151.965 74.9595L152.086 75.6986L152.199 76.4393L152.306 77.1815L152.405 77.9251L152.496 78.6699L152.58 79.4161L152.657 80.1633L152.726 80.9117L152.788 81.6611L152.842 82.4114L152.889 83.1626L85.1676 83.8812Z" stroke="url(#paint1_linear_1123_956)" stroke-width="2"/>
</g>
<defs>
<linearGradient id="paint0_linear_1123_956" x1="80" y1="0" x2="80" y2="160" gradientUnits="userSpaceOnUse">
<stop stop-color="#383838"/>
<stop offset="1" stop-color="#AFAFAF"/>
</linearGradient>
<linearGradient id="paint1_linear_1123_956" x1="83.5556" y1="14.2222" x2="83.5556" y2="142.222" gradientUnits="userSpaceOnUse">
<stop stop-color="#00FF6F"/>
<stop offset="1" stop-opacity="0"/>
</linearGradient>
</defs>
</svg>
